<svg xmlns="http://www.w3.org/2000/svg" version="1.1" xmlns:xlink="http://www.w3.org/1999/xlink" xmlns:svgjs="http://svgjs.dev/svgjs" width="2000" height="1500" viewBox="0 0 2000 1500"><rect width="2000" height="1500" fill="#ffffff"></rect><g transform="matrix(0.75,0,0,0.75,249.2500000000001,-0.7488696553008367)"><svg viewBox="0 0 280 280" data-background-color="#ffffff" preserveAspectRatio="xMidYMid meet" height="2000" width="2000" xmlns="http://www.w3.org/2000/svg" xmlns:xlink="http://www.w3.org/1999/xlink"><g id="tight-bounds" transform="matrix(1,0,0,1,0.13999999999998636,0.1402109976770589)"><svg viewBox="0 0 279.72 279.72" height="279.72" width="279.72"><g><svg viewBox="0 0 279.72 279.72" height="279.72" width="279.72"><g><svg viewBox="0 0 279.72 279.72" height="279.72" width="279.72"><g id="textblocktransform"><svg viewBox="0 0 279.72 279.72" height="279.72" width="279.72" id="textblock"><g><svg viewBox="0 0 279.72 279.72" height="279.72" width="279.72"><g transform="matrix(1,0,0,1,57.446704652707865,57.446704652707865)"><svg viewBox="0 0 164.8265906945843 164.8265906945843" height="164.8265906945843" width="164.8265906945843"><g id="icon-0"><circle r="82" cx="82.41329534729215" cy="82.41329534729215" fill="#096a2e" data-fill-palette-color="accent"></circle><svg xmlns="http://www.w3.org/2000/svg" data-name="Layer 1" viewBox="1.9690299589967748 6.727456071546466 96.0536596720773 86.542589488435" x="24.72398860418764" y="24.723988604187646" height="115.378613486209" width="115.378613486209" class="icon-xg-0" data-fill-palette-color="quaternary" id="xg-0"><path d="M98 10.51C91.58 49.44 78.4 56.37 67.88 54.76a23.62 23.62 0 0 1-6.74-2.19 28.59 28.59 0 0 1-8.23-6.14 35 35 0 0 0-5.16 12.24c-0.43-0.08-0.86-0.15-1.3-0.2a30.35 30.35 0 0 0-3.93-0.26 29.92 29.92 0 0 0-7.77 1c0.07-0.2 0.13-0.41 0.2-0.61A10 10 0 0 0 35.5 55a21.52 21.52 0 0 0-6.42-13.87L21.6 33.7a0.3 0.3 0 0 0-0.51 0.21 0.32 0.32 0 0 0 0 0.08 36.35 36.35 0 0 0 6.4 13.1C20 49.9 6.82 49.94 6.42 16.11h0a1.31 1.31 0 0 1 1.32-1.31C34 15.1 39.84 23.07 39.84 30.14a15.68 15.68 0 0 1-0.76 4.65 18.8 18.8 0 0 1-2.7 5.35 26.41 26.41 0 0 1 5.37 6.54 39.67 39.67 0 0 1 6.46-6.22l6.2-4.58h0l12.31-9a0.45 0.45 0 0 0-0.19-0.81h-0.12A54.72 54.72 0 0 0 45.5 32.55C43 20.69 45.94 1.14 96.36 8.24h0A2 2 0 0 1 98 10.51Zm-96 81A2.34 2.34 0 0 0 4.3 93.19l78.93 0.08h0a2.22 2.22 0 0 0 2.17-2.75A17.43 17.43 0 0 0 70.8 77.6a17.63 17.63 0 0 0-2.28-0.15 17.36 17.36 0 0 0-6.17 1.13 22 22 0 0 0-39.2-0.79c-0.48-0.1-1-0.2-1.45-0.26a21.82 21.82 0 0 0-2.84-0.19C10.58 77.34 3.3 82.17 2 90.48A2.36 2.36 0 0 0 2.06 91.51Z" fill="#ffffff" data-fill-palette-color="quaternary"></path></svg></g></svg></g><g id="text-0"><path d="M33.094 92.315v0c-0.311 0.84-0.933 1.422-1.868 1.744-0.939 0.314-2.34 0.439-4.204 0.374v0c-0.915-0.03-1.792-0.101-2.632-0.213-0.842-0.106-1.646-0.256-2.412-0.451v0c0.411 0.556 0.652 1.009 0.721 1.358 0.076 0.351 0.012 0.802-0.191 1.35v0c-0.492 1.331-1.035 2.739-1.628 4.225-0.6 1.483-1.129 2.804-1.587 3.964v0c0.472 0.233 0.953 0.463 1.443 0.687 0.487 0.232 0.977 0.438 1.468 0.62v0c0.433 0.16 0.874 0.298 1.324 0.412 0.454 0.124 0.889 0.248 1.305 0.373v0c0.794 0.198 1.296 0.725 1.509 1.583 0.208 0.848 0.126 1.776-0.248 2.784v0c-0.323 0.872-0.865 1.168-1.627 0.886v0c-0.459-0.17-1.108-0.549-1.948-1.139v0c-0.577-0.367-1.072-0.676-1.487-0.925-0.421-0.251-0.768-0.427-1.04-0.527v0c-0.763-0.282-1.366-0.24-1.809 0.124v0c-0.354 0.302-0.709 0.388-1.064 0.257v0c-0.33-0.122-0.696-0.342-1.1-0.661-0.41-0.321-0.767-0.677-1.071-1.068-0.303-0.391-0.495-0.727-0.575-1.006v0c-0.041-0.228-0.051-0.497-0.033-0.805 0.016-0.302 0.087-0.662 0.212-1.079v0c-2.658-2.188-4.851-4.354-6.578-6.498-1.729-2.138-2.924-4.181-3.584-6.13-0.656-1.94-0.698-3.685-0.125-5.236v0c0.354-0.956 0.93-1.533 1.73-1.729 0.802-0.203 1.95-0.028 3.443 0.524v0l1.842 0.681c2.753 1.018 5.361 1.751 7.825 2.199 2.464 0.448 4.528 0.638 6.191 0.571v0c1.745-0.031 3.302-0.399 4.673-1.104v0c0.397-0.22 0.717-0.348 0.957-0.385 0.247-0.033 0.481-0.009 0.701 0.072v0c0.407 0.151 0.756 0.459 1.046 0.927 0.292 0.461 0.484 0.987 0.573 1.578 0.09 0.592 0.039 1.146-0.152 1.663zM15.503 101.865v0c0.434-1.353 0.818-2.54 1.152-3.563 0.334-1.022 0.626-1.873 0.877-2.552v0l1.058-2.859c-0.782-0.23-1.604-0.479-2.468-0.747-0.854-0.272-1.747-0.58-2.677-0.924v0l-2.366-0.875c-0.788-0.292-1.344-0.398-1.667-0.319-0.325 0.085-0.579 0.374-0.76 0.865v0c-0.492 1.331-0.112 2.985 1.14 4.961 1.244 1.98 3.147 3.985 5.711 6.013z" fill="#096a2e" data-fill-palette-color="primary"></path><path d="M52.162 82.144v0c-1.25 1.783-2.612 2.94-4.087 3.471-1.465 0.53-2.782 0.385-3.949-0.433v0c-0.858-0.601-1.431-1.403-1.721-2.406-0.284-0.999-0.118-1.938 0.498-2.818v0c0.348-0.496 0.663-0.646 0.946-0.448v0c0.169 0.119 0.337 0.282 0.501 0.49 0.175 0.207 0.369 0.385 0.584 0.536v0c0.666 0.467 1.426 0.432 2.282-0.104 0.855-0.536 1.657-1.337 2.405-2.404v0c0.467-0.666 0.871-1.392 1.212-2.18 0.336-0.791 0.521-1.524 0.556-2.197 0.025-0.672-0.21-1.182-0.707-1.531v0c-0.547-0.384-1.145-0.395-1.794-0.033-0.643 0.365-1.322 0.92-2.037 1.664-0.711 0.738-1.425 1.504-2.142 2.298-0.716 0.794-1.408 1.415-2.076 1.864v0c-0.815 0.598-1.544 0.954-2.187 1.067-0.647 0.119-1.269-0.032-1.867-0.451v0c-1.117-0.783-1.534-2.085-1.251-3.905v0c-0.95 0.503-1.931 0.691-2.943 0.562-1.01-0.119-1.97-0.497-2.878-1.134v0c-1.162-0.815-2.04-1.885-2.634-3.21-0.598-1.32-0.803-2.809-0.615-4.47 0.188-1.66 0.915-3.393 2.18-5.199v0c0.566-0.807 1.215-1.571 1.949-2.294 0.743-0.724 1.519-1.219 2.328-1.485 0.803-0.27 1.597-0.13 2.381 0.42v0c0.288 0.202 0.562 0.482 0.824 0.842 0.261 0.36 0.275 0.706 0.041 1.039v0c-0.103 0.147-0.268 0.317-0.496 0.51-0.223 0.197-0.426 0.374-0.612 0.531v0c0.278 0.119 0.57 0.261 0.876 0.424 0.315 0.162 0.625 0.35 0.93 0.564v0c1.405 0.985 2.337 2.349 2.798 4.094 0.464 1.739 0.16 3.6-0.911 5.584v0c-0.416 0.701-0.683 1.25-0.801 1.647-0.124 0.393-0.053 0.682 0.212 0.868v0c0.237 0.166 0.51 0.143 0.819-0.07 0.309-0.213 0.644-0.529 1.005-0.948v0c1.135-1.367 2.238-2.508 3.309-3.424 1.065-0.919 2.133-1.471 3.204-1.654 1.075-0.189 2.193 0.124 3.355 0.939v0c1.354 0.949 2.246 2.168 2.676 3.655 0.43 1.488 0.451 3.089 0.065 4.804-0.386 1.715-1.129 3.357-2.228 4.925zM37.176 69.62v0c0.767-1.095 1.067-2.159 0.9-3.193-0.157-1.036-0.713-1.888-1.666-2.557v0c-0.26-0.182-0.542-0.342-0.849-0.481-0.308-0.149-0.573-0.263-0.795-0.343v0c-0.383 0.295-0.72 0.606-1.008 0.934-0.283 0.332-0.541 0.664-0.774 0.997v0c-0.886 1.264-1.341 2.417-1.366 3.461-0.024 1.043 0.381 1.857 1.216 2.442v0c0.733 0.514 1.485 0.654 2.255 0.42 0.774-0.24 1.47-0.8 2.087-1.68z" fill="#096a2e" data-fill-palette-color="primary"></path><path d="M59.034 55.978v0c-0.346 0.316-0.674 0.508-0.984 0.577-0.31 0.069-0.56-0.067-0.75-0.407v0c-0.607-1.135-1.263-2.252-1.969-3.353-0.71-1.105-1.467-2.098-2.271-2.978v0c-1.036-1.135-1.864-1.899-2.485-2.294-0.616-0.399-1.136-0.591-1.561-0.576-0.42 0.01-0.849 0.117-1.287 0.322v0c-0.213 0.073-0.427 0.11-0.642 0.11-0.215 0-0.41-0.097-0.587-0.29v0c-0.274-0.3-0.461-0.74-0.561-1.321-0.091-0.58-0.045-1.199 0.136-1.859 0.181-0.66 0.552-1.245 1.111-1.756v0c0.728-0.664 1.466-0.877 2.217-0.638 0.75 0.239 1.499 0.768 2.246 1.588v0c-0.403-1.208-0.55-2.325-0.44-3.349 0.11-1.024 0.593-1.926 1.448-2.707v0c0.58-0.53 1.182-0.841 1.806-0.934 0.619-0.099 1.193 0.142 1.722 0.722v0c0.53 0.58 0.836 1.294 0.92 2.142 0.083 0.848-0.068 1.448-0.456 1.8v0c-0.061 0.056-0.146 0.11-0.256 0.164-0.105 0.059-0.23 0.075-0.375 0.049v0c-0.586-0.09-1.083 0.051-1.49 0.422v0c-0.626 0.571-0.801 1.478-0.526 2.72 0.27 1.246 1.04 2.605 2.309 4.077v0c0.513 0.521 1.027 1.054 1.543 1.599 0.521 0.55 0.898 0.953 1.131 1.208v0c0.725 0.794 1.103 1.647 1.134 2.561 0.026 0.918-0.334 1.719-1.083 2.401z" fill="#096a2e" data-fill-palette-color="primary"></path><path d="M67.663 21.438v0c-0.704 0.408-1.388 0.549-2.053 0.421-0.663-0.137-1.218-0.562-1.665-1.275v0c-0.452-0.774-0.585-1.556-0.398-2.348 0.19-0.786 0.675-1.407 1.455-1.863v0c0.731-0.417 1.423-0.558 2.076-0.423 0.648 0.139 1.185 0.574 1.612 1.307v0c0.438 0.75 0.573 1.511 0.406 2.283-0.167 0.771-0.645 1.404-1.433 1.898zM79.421 40.121v0c-0.736 0.461-1.44 0.622-2.113 0.483-0.671-0.149-1.313-0.714-1.928-1.695v0c-0.355-0.566-0.647-1.156-0.876-1.768-0.235-0.609-0.438-1.218-0.608-1.827v0c-0.171-0.649-0.378-1.292-0.622-1.927-0.244-0.636-0.565-1.272-0.964-1.908v0c-0.278-0.444-0.605-0.829-0.98-1.155-0.379-0.332-0.84-0.465-1.385-0.4v0c-0.421 0.028-0.807 0.022-1.158-0.018-0.347-0.035-0.614-0.201-0.801-0.499v0c-0.216-0.344-0.289-0.811-0.218-1.4 0.072-0.598 0.286-1.204 0.642-1.817 0.346-0.615 0.802-1.1 1.368-1.455v0c0.613-0.384 1.163-0.505 1.651-0.364 0.481 0.145 0.925 0.432 1.332 0.861 0.407 0.428 0.773 0.902 1.098 1.422v0c0.494 0.788 0.914 1.594 1.26 2.418 0.349 0.83 0.662 1.602 0.938 2.315v0c0.193 0.529 0.391 1.007 0.593 1.433 0.193 0.424 0.397 0.808 0.613 1.153v0c0.384 0.613 0.822 0.981 1.314 1.104 0.486 0.126 1.084 0.154 1.795 0.082v0c0.299-0.016 0.525 0.098 0.679 0.343v0c0.124 0.199 0.219 0.57 0.284 1.115 0.061 0.539-0.04 1.131-0.302 1.775-0.263 0.644-0.8 1.221-1.612 1.729z" fill="#096a2e" data-fill-palette-color="primary"></path><path d="M96.688 31.598v0c-0.324 0.118-0.677 0.184-1.061 0.199-0.383 0.015-0.766-0.139-1.147-0.462-0.375-0.325-0.717-0.912-1.026-1.76v0c-0.198-0.544-0.407-1.278-0.626-2.203-0.213-0.927-0.48-2.135-0.803-3.623v0c-0.192-0.949-0.475-2.21-0.849-3.782-0.37-1.581-0.859-3.203-1.465-4.868v0c-0.269-0.738-0.584-1.514-0.946-2.328-0.354-0.81-0.735-1.525-1.145-2.145v0c-0.302 0.198-0.534 0.326-0.695 0.385v0c-0.168 0.061-0.308 0.061-0.419-0.002-0.12-0.066-0.229-0.236-0.328-0.507v0c-0.2-0.55-0.34-1.126-0.42-1.728-0.08-0.602-0.053-1.143 0.08-1.624v0c0.133-0.481 0.354-0.87 0.664-1.166 0.308-0.303 0.656-0.554 1.045-0.754v0c0.656-0.334 1.496-0.724 2.521-1.171 1.023-0.453 2.104-0.917 3.244-1.391 1.138-0.48 2.182-0.894 3.134-1.24v0c1.282-0.467 2.235-0.799 2.86-0.997 0.627-0.192 1.115-0.322 1.464-0.391v0c0.746-0.147 1.238 0.107 1.475 0.761v0c0.17 0.466 0.234 0.916 0.194 1.348-0.049 0.429-0.141 0.84-0.276 1.234v0c-0.14 0.542-0.348 0.966-0.626 1.272-0.273 0.297-0.691 0.519-1.253 0.666v0c-0.487 0.111-1.139 0.294-1.957 0.547-0.826 0.249-1.757 0.563-2.792 0.94v0c-0.434 0.158-1.001 0.383-1.701 0.675-0.696 0.283-1.43 0.594-2.201 0.933v0c0.307 0.944 0.608 2.033 0.904 3.268 0.295 1.234 0.586 2.496 0.872 3.785v0c0.717-0.327 1.586-0.699 2.608-1.115 1.022-0.416 2.07-0.838 3.146-1.267 1.085-0.424 2.051-0.791 2.9-1.1v0c0.486-0.177 0.861-0.244 1.125-0.201 0.265 0.043 0.472 0.268 0.62 0.676v0c0.17 0.466 0.235 1.007 0.195 1.623-0.04 0.616-0.175 1.182-0.404 1.698-0.23 0.516-0.554 0.836-0.971 0.959v0c-0.701 0.189-1.678 0.497-2.93 0.924-1.246 0.424-2.552 0.885-3.918 1.383v0l-1.311 0.477c0.167 0.621 0.335 1.231 0.502 1.83 0.176 0.603 0.353 1.151 0.532 1.643v0c0.347 0.952 0.749 1.755 1.207 2.409 0.449 0.65 1.04 1.135 1.773 1.455v0c0.486 0.226 0.813 0.573 0.983 1.039v0c0.217 0.596 0.075 1.263-0.425 2.003-0.507 0.742-1.291 1.306-2.353 1.693z" fill="#096a2e" data-fill-palette-color="primary"></path><path d="M126.861 23.804v0c-1.988 0.259-3.65-0.073-4.987-0.996-1.336-0.923-2.142-2.437-2.417-4.541v0c-0.127-0.977-0.115-1.944 0.038-2.903 0.153-0.958 0.409-1.87 0.769-2.737v0c-0.426 0.354-0.752 0.546-0.978 0.576v0c-0.348 0.045-0.613-0.118-0.793-0.491-0.181-0.372-0.295-0.747-0.345-1.122v0c-0.086-0.663-0.018-1.207 0.204-1.632 0.222-0.425 0.451-0.754 0.685-0.985v0c0.54-0.599 1.416-1.29 2.627-2.073 1.217-0.791 2.731-1.305 4.541-1.541v0c2.473-0.323 4.486 0.116 6.039 1.317 1.546 1.202 2.482 3.043 2.806 5.523v0c0.251 1.927 0.076 3.728-0.525 5.404-0.602 1.67-1.557 3.059-2.864 4.168-1.301 1.108-2.901 1.786-4.8 2.033zM127.618 19.224v0c1.442-0.188 2.598-0.801 3.47-1.839 0.88-1.032 1.222-2.296 1.027-3.792v0c-0.203-1.558-0.854-2.602-1.951-3.133-1.091-0.532-2.299-0.711-3.624-0.538v0c-0.608 0.079-1.147 0.209-1.617 0.388-0.477 0.18-0.919 0.384-1.328 0.611v0c-0.327 0.633-0.601 1.329-0.822 2.087-0.228 0.759-0.285 1.573-0.171 2.441v0c0.187 1.435 0.763 2.464 1.727 3.089 0.956 0.619 2.053 0.847 3.289 0.686z" fill="#096a2e" data-fill-palette-color="primary"></path><path d="M151.472 22.972v0c-0.466-0.047-0.829-0.162-1.087-0.347-0.258-0.185-0.324-0.462-0.197-0.83v0c0.439-1.209 0.833-2.444 1.18-3.704 0.348-1.267 0.582-2.493 0.701-3.68v0c0.153-1.529 0.169-2.656 0.047-3.381-0.114-0.725-0.319-1.24-0.614-1.547-0.288-0.306-0.654-0.554-1.099-0.743v0c-0.197-0.11-0.367-0.244-0.51-0.404-0.143-0.16-0.202-0.37-0.176-0.631v0c0.04-0.404 0.243-0.838 0.608-1.3 0.371-0.455 0.862-0.835 1.474-1.14 0.612-0.306 1.295-0.421 2.05-0.346v0c0.98 0.098 1.632 0.506 1.955 1.224 0.323 0.718 0.429 1.629 0.318 2.733v0c0.63-1.107 1.363-1.962 2.199-2.564 0.836-0.602 1.829-0.845 2.981-0.73v0c0.782 0.078 1.415 0.318 1.902 0.72 0.487 0.395 0.691 0.983 0.613 1.764v0c-0.078 0.782-0.405 1.486-0.98 2.115-0.575 0.628-1.123 0.916-1.645 0.863v0c-0.082-0.008-0.18-0.035-0.293-0.081-0.114-0.039-0.209-0.121-0.287-0.247v0c-0.324-0.496-0.761-0.772-1.309-0.826v0c-0.843-0.084-1.635 0.39-2.375 1.424-0.747 1.033-1.245 2.514-1.494 4.441v0c-0.045 0.729-0.098 1.468-0.159 2.217-0.062 0.755-0.11 1.305-0.144 1.648v0c-0.107 1.069-0.49 1.921-1.149 2.554-0.666 0.633-1.502 0.899-2.51 0.798z" fill="#096a2e" data-fill-palette-color="primary"></path><path d="M178.395 28.355v0c-2.106-0.653-3.561-1.764-4.366-3.333-0.803-1.576-0.87-3.443-0.201-5.602v0c0.61-1.968 1.595-3.624 2.957-4.969 1.353-1.341 2.908-2.262 4.665-2.764 1.752-0.51 3.5-0.495 5.245 0.046v0c1.665 0.516 2.87 1.34 3.615 2.472 0.741 1.124 0.901 2.364 0.481 3.72v0c-0.334 1.079-0.977 1.977-1.926 2.692-0.948 0.709-2.062 1.161-3.342 1.356-1.273 0.197-2.587 0.086-3.943-0.335v0c-1.665-0.516-2.908-1.312-3.728-2.388v0c-0.369 1.285-0.253 2.446 0.349 3.483 0.608 1.04 1.577 1.765 2.906 2.178v0c0.803 0.249 1.674 0.36 2.613 0.333 0.934-0.035 1.785-0.208 2.551-0.518v0c0.49-0.209 0.9-0.262 1.229-0.16v0c0.283 0.088 0.486 0.248 0.609 0.48 0.121 0.239 0.138 0.497 0.052 0.774v0c-0.188 0.605-0.963 1.245-2.326 1.919v0c-2.406 1.202-4.886 1.407-7.44 0.616zM182.055 18.778v0c0.994 0.308 1.887 0.358 2.681 0.149 0.802-0.213 1.301-0.636 1.496-1.268v0c0.165-0.533 0.069-1.014-0.289-1.442-0.351-0.426-0.915-0.76-1.691-1v0c-1.027-0.318-2.005-0.326-2.936-0.023-0.931 0.303-1.711 0.891-2.343 1.763v0c0.311 0.37 0.748 0.719 1.311 1.044 0.569 0.328 1.16 0.587 1.771 0.777z" fill="#096a2e" data-fill-palette-color="primary"></path><path d="M203.297 39.438v0c-1.754-1.027-2.812-2.362-3.175-4.005-0.369-1.646 0.003-3.42 1.117-5.322v0c1.101-1.879 2.486-3.323 4.156-4.333 1.67-1.01 3.455-1.529 5.356-1.557 1.901-0.028 3.74 0.478 5.518 1.52v0c1.201 0.704 2.035 1.46 2.503 2.269 0.465 0.815 0.491 1.574 0.081 2.275v0c-0.366 0.624-1.025 1.061-1.977 1.309v0c-0.358 0.094-0.774 0.129-1.248 0.107-0.471-0.028-0.807-0.101-1.009-0.22v0c-0.226-0.132-0.363-0.328-0.411-0.587v0c-0.086-0.426-0.258-0.882-0.516-1.369-0.252-0.483-0.741-0.937-1.466-1.362v0c-1.231-0.721-2.478-0.889-3.741-0.503-1.27 0.382-2.302 1.251-3.096 2.606v0c-0.717 1.225-0.947 2.42-0.688 3.586 0.263 1.16 0.971 2.078 2.124 2.754v0c0.6 0.352 1.32 0.63 2.159 0.833 0.835 0.21 1.648 0.275 2.438 0.194v0c0.42-0.089 0.781-0.045 1.084 0.133v0c0.499 0.293 0.566 0.751 0.2 1.375v0c-0.484 0.826-1.36 1.375-2.629 1.646v0c-0.968 0.207-2.075 0.19-3.322-0.054-1.253-0.247-2.405-0.679-3.458-1.295z" fill="#096a2e" data-fill-palette-color="primary"></path><path d="M223.704 54.74v0c-1.248-1.207-1.876-2.57-1.883-4.09-0.006-1.52 0.697-3.011 2.109-4.473v0c1.01-1.045 2.217-1.887 3.619-2.524 1.407-0.643 2.899-1.007 4.476-1.093 1.582-0.09 3.157 0.139 4.726 0.687 1.569 0.548 3.032 1.478 4.389 2.791v0c1.253 1.211 2.118 2.459 2.593 3.741 0.47 1.288 0.353 2.296-0.35 3.025v0c-0.182 0.188-0.439 0.414-0.771 0.678-0.337 0.259-0.628 0.452-0.874 0.578v0c-0.222 0.111-0.455 0.178-0.698 0.202-0.248 0.029-0.466-0.048-0.655-0.23v0c-0.084-0.081-0.212-0.267-0.382-0.556v0c-0.501 0.359-0.977 0.728-1.428 1.106-0.442 0.378-0.864 0.775-1.267 1.191v0c-0.766 0.793-1.33 1.614-1.69 2.462-0.351 0.849-0.242 1.688 0.328 2.516v0c0.145 0.227 0.234 0.437 0.267 0.632 0.037 0.189-0.076 0.42-0.339 0.692v0c-0.225 0.233-0.565 0.47-1.019 0.712-0.459 0.247-0.988 0.353-1.588 0.32-0.595-0.029-1.195-0.335-1.799-0.92v0c-0.813-0.785-1.15-1.691-1.011-2.716 0.139-1.016 0.742-2.076 1.81-3.181v0c-1.556 0.48-3.079 0.623-4.568 0.428-1.494-0.189-2.826-0.848-3.995-1.978zM227.853 52.455v0c0.837 0.809 1.827 1.258 2.968 1.345 1.142 0.097 2.272-0.08 3.39-0.533v0c0.716-0.275 1.424-0.65 2.122-1.125 0.698-0.475 1.352-0.983 1.962-1.524v0c-0.194-0.513-0.471-1.044-0.831-1.594-0.355-0.545-0.783-1.059-1.284-1.542v0c-1.273-1.231-2.687-1.869-4.242-1.916-1.545-0.047-2.864 0.495-3.956 1.624v0c-0.804 0.832-1.225 1.724-1.263 2.675-0.037 0.961 0.341 1.824 1.134 2.59z" fill="#096a2e" data-fill-palette-color="primary"></path><path d="M243.797 78.611v0c-0.577-0.907-0.979-1.839-1.205-2.798-0.228-0.949-0.256-1.826-0.082-2.631 0.177-0.799 0.609-1.417 1.294-1.853v0c0.372-0.237 0.78-0.366 1.224-0.387 0.446-0.031 0.802 0.163 1.069 0.581v0c0.141 0.221 0.228 0.492 0.261 0.814v0c0.037 0.597 0.169 1.305 0.396 2.125 0.233 0.815 0.59 1.601 1.072 2.356v0c0.548 0.86 1.154 1.544 1.82 2.051 0.662 0.501 1.214 0.611 1.656 0.33v0c0.343-0.218 0.428-0.624 0.255-1.216-0.173-0.592-0.548-1.534-1.125-2.825v0c-0.369-0.9-0.695-1.791-0.978-2.672-0.293-0.883-0.356-1.721-0.191-2.513 0.172-0.795 0.722-1.489 1.652-2.081v0c0.907-0.577 1.941-0.884 3.102-0.921 1.161-0.037 2.343 0.268 3.547 0.915 1.204 0.647 2.265 1.691 3.182 3.132v0c0.485 0.761 0.866 1.552 1.143 2.372 0.283 0.816 0.401 1.566 0.354 2.25-0.047 0.683-0.326 1.188-0.838 1.513v0c-0.442 0.281-0.942 0.387-1.5 0.318-0.568-0.071-1.096-0.233-1.584-0.486-0.491-0.259-0.822-0.522-0.992-0.79v0c-0.126-0.198-0.137-0.517-0.035-0.958v0c0.076-0.637 0.022-1.248-0.162-1.832-0.188-0.591-0.438-1.13-0.748-1.619v0c-0.466-0.732-0.954-1.255-1.464-1.567-0.509-0.313-0.936-0.36-1.278-0.142v0c-0.32 0.203-0.455 0.555-0.407 1.055 0.043 0.504 0.2 1.065 0.472 1.684 0.278 0.616 0.543 1.206 0.797 1.772v0c0.705 1.544 1.084 2.883 1.137 4.017 0.053 1.135-0.523 2.085-1.726 2.851v0c-0.93 0.592-2.021 0.919-3.272 0.98-1.255 0.056-2.491-0.224-3.706-0.837-1.22-0.62-2.266-1.616-3.14-2.988z" fill="#096a2e" data-fill-palette-color="primary"></path><path d="M255.689 102.973v0c-0.612-1.662-0.497-3.055 0.345-4.18 0.833-1.129 2.122-2.014 3.868-2.657v0c0.627-0.231 1.253-0.425 1.878-0.581 0.621-0.148 1.248-0.29 1.88-0.428v0c0.63-0.144 1.245-0.278 1.845-0.403 0.606-0.128 1.178-0.261 1.714-0.4v0c-0.38-0.514-0.675-1.055-0.884-1.624v0c-0.221-0.601-0.086-0.992 0.405-1.173v0c0.517-0.19 1.237-0.191 2.158-0.001 0.921 0.19 1.878 0.495 2.87 0.915 0.985 0.423 1.859 0.891 2.62 1.403 0.759 0.506 1.229 1.005 1.41 1.497v0c0.221 0.601-0.185 1.092-1.22 1.473v0c-0.272 0.1-0.558 0.18-0.859 0.239-0.299 0.066-0.61 0.129-0.933 0.189v0c0.3 0.477 0.59 0.965 0.869 1.464 0.273 0.502 0.5 0.998 0.681 1.49v0c0.231 0.627 0.301 1.148 0.211 1.563-0.094 0.424-0.454 0.751-1.081 0.981v0c-0.653 0.24-1.363 0.326-2.131 0.256-0.77-0.076-1.225-0.305-1.365-0.687v0c-0.029-0.078-0.066-0.218-0.111-0.422-0.043-0.197-0.087-0.445-0.131-0.745v0c-0.051-0.378-0.135-0.857-0.253-1.437-0.116-0.574-0.314-1.243-0.595-2.006v0c-0.916 0.124-1.844 0.275-2.785 0.453-0.943 0.171-1.767 0.386-2.472 0.645v0c-1.584 0.583-2.514 1.377-2.79 2.382-0.285 1.001-0.153 2.248 0.396 3.741v0c0.171 0.466 0.218 0.823 0.141 1.071-0.08 0.242-0.31 0.434-0.691 0.574v0c-0.899 0.331-1.832 0.149-2.8-0.544-0.967-0.694-1.698-1.71-2.19-3.048z" fill="#096a2e" data-fill-palette-color="primary"></path><path d="M8.896 143.823c0-1.791 1.452-3.243 3.242-3.243 1.791 0 3.243 1.452 3.243 3.243 0 1.791-1.452 3.243-3.243 3.242-1.791 0-3.243-1.452-3.242-3.242z" fill="#096a2e" data-fill-palette-color="primary"></path><path d="M269.079 143.823c0-1.791 1.452-3.243 3.243-3.243 1.791 0 3.243 1.452 3.243 3.243 0 1.791-1.452 3.243-3.243 3.242-1.791 0-3.243-1.452-3.243-3.242z" fill="#096a2e" data-fill-palette-color="primary"></path></g><g id="text-1"><path d="M13.015 184.841v0c-0.447-1.463-0.543-2.615-0.288-3.456 0.254-0.841 1.027-1.459 2.319-1.854v0c0.264-0.081 0.585-0.161 0.964-0.24 0.381-0.073 0.847-0.151 1.398-0.233v0c0.789-0.104 1.49-0.217 2.101-0.339 0.611-0.122 1.273-0.291 1.984-0.509v0c0.461-0.141 0.903-0.287 1.326-0.437 0.42-0.157 0.816-0.325 1.186-0.503v0c-0.117-0.217-0.187-0.364-0.211-0.444v0c-0.038-0.125-0.038-0.219 0.001-0.281 0.039-0.062 0.137-0.117 0.295-0.165v0c0.323-0.099 0.655-0.157 0.995-0.175 0.334-0.016 0.624 0.015 0.87 0.091v0c0.45 0.151 0.785 0.484 1.008 1v0c0.173 0.401 0.376 0.901 0.609 1.499 0.231 0.592 0.458 1.204 0.68 1.835 0.215 0.633 0.4 1.203 0.555 1.711v0c0.433 1.417 0.66 2.266 0.681 2.547v0c0.061 0.413-0.092 0.677-0.461 0.79v0c-0.468 0.143-0.942 0.111-1.423-0.095v0c-0.281-0.094-0.497-0.212-0.649-0.353-0.151-0.141-0.266-0.365-0.346-0.673v0c-0.161-0.693-0.313-1.295-0.454-1.806-0.135-0.513-0.234-0.872-0.297-1.076v0c-0.109-0.356-0.23-0.719-0.364-1.088-0.128-0.372-0.267-0.743-0.417-1.116v0c-0.534 0.163-1.117 0.316-1.751 0.459-0.627 0.141-1.292 0.276-1.994 0.404v0c0.262 0.691 0.539 1.482 0.832 2.372 0.298 0.881 0.553 1.668 0.765 2.36v0c0.095 0.31 0.127 0.534 0.097 0.673-0.025 0.13-0.169 0.235-0.433 0.316v0c-0.244 0.074-0.537 0.092-0.881 0.052-0.335-0.035-0.644-0.127-0.928-0.278v0c-0.12-0.064-0.224-0.144-0.311-0.24-0.085-0.089-0.149-0.228-0.192-0.417v0c-0.168-0.669-0.375-1.427-0.619-2.274-0.236-0.843-0.46-1.578-0.674-2.205v0c-0.374 0.049-0.711 0.102-1.01 0.158-0.3 0.056-0.565 0.119-0.796 0.189v0c-0.85 0.26-1.377 0.658-1.58 1.196-0.212 0.533-0.167 1.294 0.135 2.282v0c0.183 0.6 0.416 1.162 0.699 1.688 0.277 0.528 0.649 1.041 1.119 1.539v0c0.192 0.179 0.304 0.322 0.336 0.427v0c0.052 0.171-0.015 0.376-0.202 0.613-0.189 0.231-0.422 0.388-0.699 0.472v0c-0.343 0.105-0.7 0.077-1.073-0.082-0.382-0.164-0.745-0.421-1.089-0.77v0c-0.358-0.417-0.697-0.936-1.017-1.559-0.313-0.625-0.579-1.293-0.796-2.005z" fill="#096a2e" data-fill-palette-color="primary"></path><path d="M16.972 195.946v0c-0.167-0.401-0.186-0.796-0.056-1.185 0.12-0.393 0.505-0.759 1.156-1.097v0c0.489-0.241 1.02-0.536 1.59-0.885 0.571-0.349 1.098-0.714 1.582-1.094 0.486-0.374 0.849-0.722 1.088-1.046v0c0.114-0.174 0.186-0.342 0.215-0.504 0.03-0.162 0.009-0.373-0.062-0.634v0c-0.056-0.171-0.051-0.303 0.014-0.398 0.063-0.101 0.189-0.191 0.38-0.27v0c0.611-0.254 1.133-0.273 1.565-0.058 0.424 0.212 0.726 0.534 0.906 0.967v0c0.185 0.445 0.197 0.877 0.035 1.295-0.168 0.421-0.458 0.81-0.869 1.167-0.402 0.361-0.875 0.696-1.418 1.004-0.546 0.302-1.109 0.573-1.687 0.814v0c-0.242 0.101-0.494 0.202-0.758 0.304-0.263 0.102-0.484 0.19-0.663 0.264v0c-0.159 0.066-0.27 0.15-0.332 0.25-0.06 0.107-0.05 0.256 0.029 0.447v0c0.101 0.242 0.286 0.489 0.555 0.743 0.27 0.254 0.602 0.477 0.996 0.672 0.394 0.194 0.814 0.315 1.258 0.361 0.454 0.05 0.903-0.017 1.349-0.203v0c0.248-0.103 0.498-0.256 0.75-0.457 0.246-0.199 0.43-0.429 0.552-0.689v0c0.117-0.258 0.212-0.45 0.286-0.578 0.08-0.13 0.193-0.226 0.34-0.287v0c0.267-0.111 0.564-0.089 0.889 0.067 0.33 0.146 0.631 0.361 0.906 0.642 0.271 0.275 0.46 0.54 0.565 0.794v0c0.18 0.433 0.117 0.783-0.189 1.053-0.315 0.265-0.686 0.487-1.112 0.664v0c-0.821 0.341-1.737 0.551-2.749 0.628-1.015 0.071-2.016 0.014-3.004-0.172-0.979-0.182-1.838-0.489-2.577-0.92-0.742-0.438-1.251-0.991-1.53-1.659z" fill="#096a2e" data-fill-palette-color="primary"></path><path d="M22.425 207.612v0c-0.568-1.087-0.702-2.094-0.401-3.021 0.304-0.936 1.011-1.695 2.123-2.275v0c1.014-0.53 2.052-0.789 3.115-0.777 1.054 0.009 2.025 0.26 2.912 0.752 0.881 0.496 1.556 1.193 2.025 2.09v0c0.447 0.855 0.593 1.649 0.441 2.382-0.153 0.733-0.578 1.282-1.275 1.646v0c-0.556 0.29-1.158 0.387-1.806 0.291-0.649-0.096-1.262-0.355-1.84-0.776-0.581-0.427-1.053-0.989-1.417-1.685v0c-0.45-0.861-0.62-1.662-0.51-2.404v0c-0.653 0.357-1.065 0.856-1.235 1.497-0.173 0.65-0.081 1.317 0.276 2.001v0c0.214 0.409 0.512 0.794 0.894 1.154 0.373 0.357 0.769 0.624 1.189 0.801v0c0.276 0.112 0.459 0.254 0.548 0.425v0c0.073 0.14 0.09 0.283 0.049 0.429-0.044 0.139-0.136 0.246-0.276 0.319v0c-0.318 0.166-0.875 0.111-1.672-0.164v0c-1.408-0.477-2.455-1.372-3.14-2.685zM27.621 205.305v0c0.268 0.513 0.598 0.885 0.991 1.114 0.392 0.23 0.754 0.259 1.083 0.087v0c0.269-0.14 0.417-0.362 0.446-0.664 0.031-0.312-0.057-0.666-0.264-1.063v0c-0.278-0.531-0.659-0.919-1.144-1.163-0.479-0.247-1.014-0.325-1.604-0.235v0c-0.026 0.262 0.007 0.572 0.1 0.927 0.096 0.347 0.226 0.679 0.392 0.997z" fill="#096a2e" data-fill-palette-color="primary"></path><path d="M27.402 216.251v0c-0.137-0.215-0.211-0.413-0.221-0.594-0.006-0.176 0.091-0.299 0.291-0.37v0c0.683-0.224 1.358-0.48 2.025-0.767 0.67-0.282 1.284-0.601 1.841-0.957v0c0.714-0.457 1.211-0.836 1.493-1.139 0.275-0.299 0.428-0.564 0.459-0.797 0.031-0.233 0.013-0.479-0.055-0.737v0c-0.022-0.125-0.021-0.244 0.004-0.359 0.016-0.116 0.084-0.213 0.207-0.291v0c0.192-0.122 0.45-0.185 0.774-0.189 0.329 0.002 0.664 0.086 1.008 0.252 0.343 0.165 0.626 0.422 0.848 0.77v0c0.297 0.464 0.343 0.889 0.139 1.272-0.2 0.39-0.559 0.75-1.076 1.081v0c0.702-0.105 1.327-0.08 1.877 0.076 0.549 0.156 0.997 0.503 1.342 1.043v0c0.234 0.366 0.347 0.722 0.341 1.07-0.007 0.348-0.196 0.64-0.568 0.878v0c-0.366 0.234-0.782 0.337-1.25 0.309-0.466-0.038-0.776-0.178-0.932-0.422v0c-0.026-0.041-0.052-0.094-0.077-0.159-0.022-0.06-0.017-0.128 0.015-0.207v0c0.1-0.317 0.068-0.604-0.095-0.859v0c-0.252-0.395-0.732-0.575-1.438-0.54-0.706 0.034-1.521 0.327-2.445 0.877v0c-0.335 0.231-0.675 0.46-1.019 0.688-0.347 0.238-0.601 0.409-0.764 0.513v0c-0.505 0.323-1.009 0.449-1.512 0.379-0.503-0.071-0.907-0.344-1.212-0.821z" fill="#096a2e" data-fill-palette-color="primary"></path><path d="M27.728 228.128v0c-0.405-0.523-0.612-1.081-0.621-1.677-0.01-0.586 0.22-1.06 0.688-1.423v0c0.37-0.287 0.77-0.423 1.201-0.408 0.434 0.02 0.78 0.197 1.038 0.529v0c0.118 0.152 0.178 0.28 0.18 0.383-0.008 0.102-0.027 0.195-0.058 0.28v0c-0.089 0.234-0.14 0.466-0.154 0.695-0.018 0.224 0.061 0.45 0.239 0.679v0c0.237 0.305 0.576 0.517 1.017 0.636 0.436 0.124 0.889 0.196 1.358 0.216v0c0.408 0.032 0.957 0.025 1.645-0.021 0.688-0.046 1.437-0.138 2.245-0.276v0c-0.459-0.097-0.836-0.223-1.131-0.379-0.295-0.155-0.527-0.341-0.696-0.559v0c-0.207-0.267-0.312-0.604-0.314-1.012-0.003-0.408 0.248-0.855 0.751-1.341v0c0.39-0.363 0.795-0.796 1.217-1.298 0.427-0.506 0.816-1.021 1.168-1.547 0.357-0.53 0.612-1.037 0.767-1.523v0c0.081-0.211 0.115-0.403 0.102-0.577-0.012-0.173-0.09-0.38-0.231-0.618v0c-0.107-0.161-0.14-0.293-0.098-0.396 0.042-0.103 0.145-0.217 0.309-0.344v0c0.457-0.355 0.927-0.514 1.408-0.477 0.472 0.035 0.877 0.27 1.215 0.705v0c0.405 0.523 0.498 1.052 0.278 1.59-0.225 0.541-0.561 1.115-1.006 1.722v0c-0.178 0.243-0.427 0.545-0.748 0.907-0.321 0.362-0.675 0.737-1.062 1.125-0.389 0.398-0.771 0.76-1.146 1.086v0c-0.27 0.236-0.287 0.506-0.051 0.811v0c0.313 0.403 0.74 0.69 1.283 0.862 0.543 0.172 1.11 0.216 1.7 0.133 0.584-0.078 1.1-0.291 1.546-0.637v0c0.256-0.199 0.461-0.406 0.616-0.622 0.156-0.226 0.251-0.474 0.285-0.745v0c0.055-0.243 0.1-0.439 0.133-0.587 0.039-0.152 0.121-0.277 0.247-0.374v0c0.218-0.169 0.5-0.227 0.846-0.173 0.347 0.054 0.695 0.176 1.044 0.367 0.354 0.187 0.614 0.387 0.779 0.6v0c0.296 0.381 0.312 0.778 0.048 1.192-0.268 0.408-0.642 0.746-1.122 1.014v0c-0.658 0.388-1.481 0.783-2.47 1.184-0.994 0.405-2.074 0.772-3.24 1.101-1.176 0.328-2.36 0.584-3.551 0.767-1.192 0.183-2.304 0.257-3.335 0.22v0c-0.891-0.024-1.718-0.18-2.482-0.468-0.76-0.282-1.372-0.723-1.837-1.322z" fill="#096a2e" data-fill-palette-color="primary"></path><path d="M44.429 244.374v0c-0.225-0.213-0.34-0.432-0.346-0.656-0.011-0.219 0.127-0.469 0.412-0.749v0c0.166-0.175 0.477-0.473 0.934-0.895 0.457-0.421 1.002-0.916 1.635-1.483 0.634-0.558 1.298-1.143 1.993-1.756 0.696-0.603 1.367-1.186 2.016-1.749 0.643-0.558 1.198-1.038 1.665-1.44v0c-0.124-0.099-0.242-0.196-0.351-0.29-0.11-0.095-0.229-0.179-0.358-0.254v0c-0.144-0.089-0.245-0.162-0.305-0.219v0c-0.14-0.133-0.152-0.305-0.036-0.518 0.116-0.213 0.245-0.394 0.388-0.544v0c0.166-0.175 0.331-0.299 0.495-0.371 0.164-0.063 0.367-0.046 0.608 0.05v0c0.152 0.05 0.33 0.138 0.533 0.264 0.203 0.126 0.407 0.267 0.611 0.422v0c0.714-0.633 1.426-1.202 2.133-1.708 0.713-0.501 1.401-0.846 2.064-1.034v0c0.692-0.189 1.389-0.193 2.09-0.011 0.706 0.176 1.3 0.492 1.78 0.947v0c0.35 0.332 0.616 0.712 0.797 1.142 0.182 0.429 0.256 0.856 0.224 1.28-0.038 0.42-0.201 0.783-0.49 1.088v0c-0.209 0.22-0.434 0.348-0.678 0.383-0.243 0.036-0.434-0.013-0.574-0.146v0c-0.06-0.057-0.113-0.131-0.159-0.222-0.051-0.086-0.1-0.175-0.146-0.267v0c-0.073-0.183-0.186-0.385-0.337-0.605-0.157-0.225-0.345-0.442-0.566-0.65v0c-0.455-0.432-0.931-0.65-1.428-0.657-0.492-0.002-1.007 0.146-1.546 0.443-0.543 0.302-1.12 0.695-1.73 1.178v0c0.269 0.207 0.555 0.431 0.858 0.672 0.299 0.246 0.536 0.451 0.711 0.618v0c0.28 0.266 0.457 0.514 0.531 0.746 0.075 0.242-0.004 0.485-0.236 0.73v0c-0.142 0.15-0.338 0.301-0.588 0.454-0.244 0.158-0.495 0.266-0.752 0.327-0.252 0.055-0.448 0.017-0.588-0.116v0c-0.06-0.057-0.143-0.169-0.25-0.337v0c-0.126-0.167-0.295-0.385-0.507-0.652-0.212-0.267-0.5-0.584-0.865-0.95v0c-0.524 0.462-1.09 0.984-1.699 1.565-0.613 0.586-1.24 1.217-1.88 1.892v0c-0.702 0.74-1.284 1.398-1.746 1.976-0.457 0.582-0.825 1.065-1.103 1.447v0c-0.122 0.179-0.233 0.33-0.331 0.455-0.099 0.124-0.182 0.222-0.249 0.292v0c-0.322 0.34-0.649 0.524-0.979 0.552-0.34 0.028-0.656-0.029-0.948-0.173-0.286-0.139-0.522-0.296-0.707-0.471z" fill="#096a2e" data-fill-palette-color="primary"></path><path d="M55.26 248.301v0c-0.746-0.611-1.156-1.335-1.229-2.169-0.069-0.84 0.253-1.695 0.965-2.564v0c0.511-0.623 1.14-1.146 1.886-1.567 0.752-0.417 1.56-0.686 2.425-0.806 0.87-0.116 1.752-0.061 2.645 0.164 0.895 0.234 1.747 0.684 2.557 1.347v0c0.746 0.611 1.278 1.261 1.596 1.949 0.318 0.688 0.298 1.251-0.06 1.688v0c-0.092 0.112-0.222 0.25-0.393 0.413-0.175 0.159-0.327 0.28-0.456 0.361v0c-0.116 0.065-0.243 0.112-0.383 0.141-0.135 0.023-0.258-0.011-0.37-0.103v0c-0.048-0.039-0.126-0.134-0.234-0.285v0c-0.262 0.222-0.509 0.447-0.74 0.676-0.222 0.228-0.436 0.467-0.642 0.717v0c-0.389 0.474-0.664 0.952-0.827 1.433-0.157 0.486-0.058 0.946 0.299 1.381v0c0.09 0.118 0.15 0.23 0.18 0.334 0.025 0.1-0.031 0.233-0.166 0.399v0c-0.114 0.139-0.287 0.286-0.522 0.441-0.244 0.156-0.53 0.239-0.857 0.246-0.337 0.009-0.684-0.133-1.041-0.425v0c-0.49-0.402-0.72-0.888-0.688-1.46 0.027-0.566 0.311-1.179 0.853-1.839v0c-0.838 0.338-1.673 0.487-2.504 0.446-0.831-0.04-1.596-0.346-2.294-0.918zM57.451 246.85v0c0.501 0.411 1.067 0.616 1.699 0.617 0.632 0.001 1.248-0.148 1.85-0.448v0c0.383-0.185 0.758-0.425 1.126-0.721 0.363-0.291 0.699-0.603 1.009-0.937v0c-0.125-0.272-0.302-0.55-0.531-0.836-0.219-0.287-0.478-0.552-0.777-0.797v0c-0.762-0.625-1.572-0.914-2.429-0.868-0.857 0.046-1.561 0.404-2.111 1.076v0c-0.411 0.501-0.604 1.015-0.581 1.541 0.023 0.526 0.271 0.984 0.745 1.373z" fill="#096a2e" data-fill-palette-color="primary"></path><path d="M65.16 255.873v0c-0.211-0.143-0.357-0.296-0.438-0.459-0.075-0.159-0.035-0.311 0.12-0.455v0c0.538-0.476 1.056-0.978 1.555-1.506 0.504-0.524 0.941-1.06 1.311-1.608v0c0.475-0.702 0.781-1.248 0.919-1.637 0.134-0.383 0.17-0.688 0.107-0.914-0.064-0.226-0.178-0.444-0.343-0.655v0c-0.07-0.106-0.116-0.216-0.138-0.331-0.032-0.113-0.007-0.229 0.073-0.349v0c0.127-0.188 0.34-0.348 0.637-0.48 0.303-0.128 0.644-0.184 1.024-0.169 0.38 0.016 0.742 0.139 1.084 0.371v0c0.457 0.309 0.667 0.68 0.633 1.114-0.03 0.437-0.216 0.91-0.56 1.418v0c0.602-0.375 1.187-0.599 1.753-0.674 0.566-0.075 1.115 0.067 1.645 0.426v0c0.36 0.243 0.605 0.526 0.737 0.847 0.132 0.322 0.074 0.665-0.172 1.031v0c-0.243 0.36-0.585 0.619-1.026 0.779-0.442 0.15-0.783 0.144-1.023-0.018v0c-0.04-0.027-0.085-0.066-0.134-0.115-0.044-0.046-0.066-0.111-0.068-0.196v0c-0.034-0.331-0.177-0.581-0.428-0.751v0c-0.388-0.262-0.899-0.238-1.534 0.074-0.635 0.311-1.267 0.902-1.897 1.773v0c-0.216 0.344-0.437 0.69-0.663 1.037-0.224 0.356-0.39 0.614-0.498 0.773v0c-0.336 0.497-0.749 0.812-1.239 0.947-0.49 0.134-0.969 0.043-1.437-0.273z" fill="#096a2e" data-fill-palette-color="primary"></path><path d="M73.867 261.322v0c-0.513-0.269-0.652-0.559-0.418-0.873v0c0.482-0.533 0.94-1.09 1.377-1.67 0.442-0.577 0.817-1.159 1.123-1.745v0c0.393-0.751 0.634-1.329 0.722-1.734 0.091-0.396 0.095-0.701 0.013-0.915-0.088-0.217-0.229-0.423-0.423-0.618v0c-0.075-0.094-0.133-0.198-0.175-0.313-0.044-0.109-0.033-0.227 0.035-0.355v0c0.105-0.201 0.302-0.383 0.588-0.544 0.287-0.161 0.623-0.253 1.008-0.277 0.386-0.024 0.762 0.061 1.128 0.253v0c0.488 0.256 0.736 0.599 0.743 1.031 0.013 0.435-0.122 0.924-0.406 1.467v0c-0.185 0.354-0.431 0.735-0.738 1.141-0.303 0.401-0.584 0.759-0.844 1.076v0l0.032 0.051c0.628-0.635 1.275-1.187 1.94-1.655 0.671-0.465 1.354-0.773 2.047-0.923 0.684-0.147 1.34-0.056 1.969 0.273v0c0.641 0.336 1.034 0.818 1.179 1.446 0.139 0.625-0.012 1.359-0.453 2.201v0l-0.249 0.476c0.872-0.655 1.758-1.121 2.656-1.397 0.899-0.276 1.77-0.193 2.612 0.248v0c0.684 0.358 1.098 0.867 1.243 1.526 0.145 0.659 0.038 1.331-0.32 2.014v0c-0.141 0.269-0.304 0.514-0.49 0.735-0.192 0.218-0.386 0.432-0.581 0.641v0c-0.179 0.194-0.36 0.398-0.543 0.614-0.183 0.215-0.338 0.445-0.466 0.689v0c-0.448 0.854-0.375 1.6 0.216 2.237v0c0.075 0.094 0.131 0.181 0.167 0.262 0.029 0.078 0.01 0.18-0.057 0.308v0c-0.067 0.128-0.204 0.294-0.412 0.497-0.207 0.203-0.476 0.345-0.807 0.428-0.341 0.086-0.725 0.017-1.152-0.207v0c-0.555-0.291-0.877-0.716-0.965-1.275-0.085-0.566 0.037-1.163 0.366-1.791v0c0.163-0.311 0.362-0.623 0.596-0.937 0.24-0.31 0.486-0.601 0.737-0.873v0c0.22-0.242 0.422-0.479 0.605-0.71 0.183-0.231 0.324-0.441 0.424-0.63v0c0.179-0.342 0.228-0.635 0.146-0.88-0.085-0.239-0.262-0.429-0.53-0.57v0c-0.458-0.24-0.943-0.315-1.457-0.226-0.51 0.098-1.026 0.303-1.546 0.613-0.514 0.314-1.015 0.69-1.501 1.128v0c-0.055 0.135-0.129 0.306-0.222 0.513-0.103 0.211-0.195 0.395-0.279 0.554v0c-0.141 0.269-0.308 0.543-0.501 0.823-0.196 0.286-0.395 0.501-0.594 0.645v0c-0.26 0.214-0.544 0.349-0.854 0.405-0.309 0.056-0.65-0.014-1.022-0.209v0c-0.159-0.083-0.291-0.195-0.396-0.336-0.115-0.138-0.133-0.28-0.057-0.426v0c0.029-0.055 0.204-0.286 0.527-0.693 0.319-0.401 0.694-0.908 1.124-1.522 0.428-0.608 0.806-1.227 1.135-1.856v0c0.358-0.684 0.536-1.193 0.533-1.529 0-0.342-0.143-0.588-0.43-0.739v0c-0.354-0.185-0.771-0.213-1.251-0.083-0.483 0.136-0.979 0.37-1.488 0.702-0.509 0.332-0.995 0.704-1.459 1.114-0.458 0.414-0.86 0.81-1.206 1.189v0l-0.124 0.238c-0.278 0.531-0.653 0.891-1.126 1.079-0.472 0.188-0.955 0.153-1.449-0.106z" fill="#096a2e" data-fill-palette-color="primary"></path><path d="M93.885 271.065v0c-0.553-0.212-1.04-0.491-1.461-0.837-0.418-0.352-0.721-0.738-0.907-1.156-0.182-0.409-0.192-0.826-0.03-1.251v0c0.086-0.225 0.222-0.416 0.408-0.574 0.195-0.161 0.421-0.193 0.678-0.094v0c0.135 0.052 0.262 0.145 0.381 0.278v0c0.213 0.252 0.505 0.522 0.873 0.811 0.375 0.291 0.794 0.526 1.258 0.704v0c0.528 0.202 1.024 0.304 1.488 0.305 0.462 0.007 0.745-0.124 0.848-0.394v0c0.081-0.212-0.015-0.423-0.289-0.631-0.274-0.208-0.752-0.502-1.433-0.882v0c-0.461-0.28-0.899-0.57-1.316-0.87-0.423-0.302-0.727-0.655-0.911-1.058-0.189-0.412-0.175-0.901 0.042-1.467v0c0.215-0.56 0.576-1.041 1.085-1.443 0.506-0.396 1.131-0.651 1.876-0.764 0.751-0.111 1.57 0.004 2.458 0.345v0c0.463 0.178 0.893 0.405 1.288 0.682 0.398 0.271 0.698 0.566 0.899 0.887 0.208 0.323 0.252 0.643 0.131 0.958v0c-0.104 0.27-0.292 0.482-0.565 0.636-0.279 0.151-0.568 0.251-0.867 0.298-0.305 0.045-0.538 0.037-0.699-0.024v0c-0.122-0.047-0.235-0.186-0.338-0.418v0c-0.178-0.305-0.403-0.557-0.673-0.756-0.277-0.202-0.566-0.361-0.869-0.477v0c-0.45-0.173-0.84-0.245-1.168-0.215-0.335 0.027-0.543 0.146-0.624 0.358v0c-0.074 0.193-0.015 0.396 0.176 0.61 0.185 0.211 0.441 0.409 0.768 0.593 0.321 0.182 0.631 0.356 0.929 0.522v0c0.828 0.458 1.441 0.929 1.838 1.413 0.401 0.493 0.461 1.107 0.18 1.84v0c-0.22 0.573-0.599 1.08-1.138 1.523-0.543 0.434-1.185 0.715-1.928 0.844-0.749 0.126-1.545 0.027-2.388-0.296z" fill="#096a2e" data-fill-palette-color="primary"></path><path d="M113.458 276.89v0c-1.104-0.242-1.892-0.763-2.366-1.565-0.48-0.803-0.589-1.804-0.327-3.002v0c0.258-1.178 0.741-2.176 1.449-2.994 0.708-0.818 1.561-1.397 2.559-1.736 1-0.346 2.058-0.396 3.175-0.151v0c0.754 0.165 1.322 0.423 1.703 0.774 0.39 0.346 0.536 0.741 0.439 1.186v0c-0.085 0.39-0.361 0.732-0.827 1.025v0c-0.172 0.11-0.383 0.202-0.632 0.274-0.254 0.064-0.445 0.083-0.572 0.055v0c-0.141-0.031-0.247-0.111-0.318-0.239v0c-0.117-0.209-0.286-0.419-0.508-0.629-0.214-0.216-0.549-0.374-1.007-0.475v0c-0.767-0.168-1.455-0.04-2.063 0.385-0.599 0.419-0.992 1.052-1.177 1.9v0c-0.169 0.774-0.087 1.444 0.247 2.012 0.341 0.568 0.872 0.931 1.592 1.089v0c0.377 0.082 0.806 0.106 1.286 0.069 0.474-0.037 0.913-0.142 1.318-0.314v0c0.204-0.125 0.4-0.166 0.588-0.126v0c0.316 0.069 0.431 0.302 0.344 0.7v0c-0.113 0.518-0.481 0.956-1.102 1.314v0c-0.47 0.278-1.056 0.457-1.757 0.536-0.703 0.086-1.384 0.057-2.044-0.088z" fill="#096a2e" data-fill-palette-color="primary"></path><path d="M125.321 278.909v0c-1.1-0.139-1.945-0.548-2.532-1.227-0.587-0.685-0.807-1.609-0.66-2.772v0c0.069-0.547 0.211-1.067 0.427-1.56 0.214-0.487 0.48-0.939 0.797-1.358v0c-0.281 0.131-0.482 0.189-0.606 0.174v0c-0.198-0.025-0.318-0.151-0.358-0.379-0.048-0.228-0.058-0.445-0.032-0.65v0c0.047-0.369 0.162-0.65 0.346-0.842 0.178-0.2 0.346-0.345 0.503-0.436v0c0.371-0.245 0.937-0.492 1.698-0.743 0.762-0.258 1.645-0.323 2.65-0.196v0c1.374 0.174 2.391 0.695 3.053 1.563 0.662 0.862 0.906 1.979 0.731 3.354v0c-0.135 1.066-0.48 2.009-1.035 2.827-0.561 0.811-1.267 1.423-2.118 1.836-0.857 0.405-1.812 0.542-2.864 0.409zM126.368 276.562v0c0.8 0.101 1.508-0.066 2.126-0.502 0.61-0.43 0.968-1.062 1.074-1.895v0c0.109-0.861-0.09-1.511-0.597-1.951-0.515-0.433-1.141-0.697-1.879-0.79v0c-0.335-0.042-0.64-0.05-0.914-0.022-0.281 0.027-0.547 0.073-0.799 0.138v0c-0.266 0.293-0.514 0.629-0.743 1.011-0.221 0.375-0.362 0.801-0.422 1.28v0c-0.101 0.8 0.062 1.432 0.489 1.895 0.427 0.471 0.982 0.749 1.665 0.836z" fill="#096a2e" data-fill-palette-color="primary"></path><path d="M135.853 279.72v0c-0.579 0-0.837-0.193-0.775-0.578v0c0.179-0.696 0.327-1.402 0.444-2.119 0.124-0.717 0.185-1.406 0.185-2.067v0c0-0.847-0.056-1.471-0.166-1.871-0.103-0.393-0.241-0.665-0.414-0.816-0.179-0.152-0.4-0.269-0.662-0.351v0c-0.11-0.048-0.21-0.114-0.299-0.197-0.09-0.076-0.134-0.186-0.135-0.33v0c0-0.227 0.089-0.479 0.269-0.755 0.179-0.276 0.434-0.513 0.764-0.713 0.331-0.2 0.703-0.3 1.116-0.3v0c0.551 0 0.93 0.189 1.137 0.568 0.214 0.379 0.321 0.875 0.321 1.488v0c0 0.4-0.041 0.851-0.123 1.354-0.082 0.496-0.165 0.944-0.248 1.343v0l0.052 0.031c0.261-0.854 0.578-1.643 0.95-2.367 0.379-0.724 0.84-1.313 1.384-1.768 0.537-0.448 1.161-0.672 1.87-0.672v0c0.723 0 1.295 0.244 1.716 0.733 0.414 0.489 0.621 1.209 0.621 2.16v0l0 0.537c0.468-0.985 1.036-1.809 1.704-2.471 0.668-0.662 1.478-0.993 2.429-0.993v0c0.772 0 1.375 0.258 1.809 0.775 0.434 0.517 0.652 1.161 0.652 1.932v0c0 0.303-0.031 0.596-0.093 0.879-0.069 0.283-0.141 0.562-0.217 0.837v0c-0.069 0.255-0.134 0.52-0.196 0.796-0.062 0.276-0.093 0.551-0.093 0.827v0c0 0.965 0.411 1.591 1.231 1.88v0c0.11 0.048 0.2 0.1 0.269 0.155 0.062 0.055 0.093 0.155 0.093 0.3v0c0 0.145-0.045 0.355-0.134 0.63-0.089 0.276-0.262 0.527-0.517 0.755-0.262 0.234-0.634 0.352-1.116 0.352v0c-0.627 0-1.109-0.227-1.447-0.682-0.338-0.461-0.507-1.047-0.507-1.757v0c0-0.351 0.031-0.72 0.093-1.106 0.069-0.386 0.151-0.758 0.247-1.116v0c0.083-0.317 0.151-0.62 0.207-0.909 0.055-0.289 0.082-0.541 0.082-0.755v0c0-0.386-0.093-0.668-0.279-0.847-0.186-0.172-0.431-0.258-0.734-0.258v0c-0.517 0-0.982 0.159-1.395 0.476-0.406 0.324-0.768 0.744-1.085 1.261-0.31 0.517-0.578 1.082-0.805 1.695v0c0.014 0.145 0.028 0.331 0.041 0.558 0.007 0.234 0.011 0.441 0.011 0.62v0c0 0.303-0.02 0.624-0.062 0.961-0.041 0.345-0.117 0.627-0.227 0.848v0c-0.131 0.31-0.32 0.562-0.568 0.755-0.248 0.193-0.582 0.29-1.002 0.289v0c-0.179 0-0.348-0.038-0.507-0.113-0.165-0.069-0.248-0.186-0.248-0.351v0c0-0.062 0.048-0.348 0.144-0.858 0.096-0.503 0.192-1.127 0.289-1.871 0.096-0.737 0.144-1.461 0.144-2.17v0c0-0.772-0.08-1.306-0.239-1.602-0.159-0.303-0.4-0.455-0.723-0.455v0c-0.4 0-0.782 0.169-1.147 0.507-0.365 0.345-0.696 0.782-0.992 1.313-0.296 0.531-0.554 1.085-0.774 1.664-0.213 0.579-0.385 1.116-0.516 1.613v0l0 0.269c0 0.599-0.165 1.092-0.496 1.478-0.331 0.386-0.775 0.579-1.333 0.579z" fill="#096a2e" data-fill-palette-color="primary"></path><path d="M158.725 278.969v0c-1.218 0.146-2.207-0.085-2.966-0.695-0.768-0.616-1.227-1.546-1.377-2.791v0c-0.136-1.136-0.011-2.199 0.377-3.189 0.382-0.983 0.96-1.802 1.735-2.457 0.776-0.648 1.666-1.033 2.672-1.153v0c0.958-0.115 1.752 0.029 2.383 0.431 0.631 0.403 0.994 0.994 1.088 1.775v0c0.075 0.623-0.048 1.22-0.368 1.793-0.32 0.573-0.779 1.055-1.377 1.445-0.605 0.392-1.298 0.635-2.078 0.729v0c-0.965 0.116-1.774-0.009-2.428-0.375v0c0.102 0.737 0.423 1.299 0.962 1.686 0.547 0.392 1.203 0.542 1.969 0.45v0c0.458-0.055 0.923-0.198 1.396-0.428 0.466-0.223 0.856-0.498 1.17-0.828v0c0.203-0.219 0.4-0.339 0.592-0.362v0c0.157-0.019 0.297 0.016 0.418 0.106 0.115 0.09 0.182 0.214 0.201 0.371v0c0.043 0.356-0.206 0.857-0.745 1.505v0c-0.945 1.147-2.152 1.81-3.624 1.987zM158.408 273.292v0c0.575-0.069 1.039-0.246 1.393-0.532 0.354-0.285 0.509-0.613 0.465-0.982v0c-0.036-0.301-0.191-0.518-0.463-0.652-0.28-0.14-0.643-0.183-1.088-0.13v0c-0.595 0.071-1.093 0.291-1.493 0.659-0.401 0.36-0.663 0.833-0.787 1.416v0c0.236 0.117 0.537 0.196 0.902 0.235 0.358 0.033 0.715 0.029 1.071-0.014z" fill="#096a2e" data-fill-palette-color="primary"></path><path d="M170.279 277.053v0c-0.58 0.122-1.14 0.152-1.681 0.09-0.543-0.069-1.006-0.228-1.39-0.478-0.376-0.245-0.61-0.59-0.704-1.034v0c-0.05-0.236-0.039-0.471 0.031-0.704 0.076-0.241 0.249-0.39 0.519-0.447v0c0.142-0.03 0.298-0.021 0.47 0.027v0c0.316 0.095 0.707 0.164 1.174 0.207 0.473 0.041 0.953 0.01 1.438-0.092v0c0.553-0.117 1.025-0.3 1.415-0.552 0.392-0.245 0.558-0.508 0.499-0.791v0c-0.047-0.222-0.242-0.347-0.586-0.373-0.344-0.026-0.904-0.014-1.682 0.037v0c-0.539 0.015-1.065 0.01-1.577-0.016-0.519-0.024-0.966-0.156-1.34-0.393-0.382-0.243-0.636-0.662-0.761-1.255v0c-0.124-0.587-0.081-1.187 0.128-1.801 0.21-0.608 0.597-1.161 1.16-1.66 0.57-0.5 1.321-0.849 2.251-1.045v0c0.485-0.102 0.969-0.144 1.452-0.127 0.481 0.011 0.894 0.097 1.238 0.257 0.35 0.159 0.56 0.403 0.629 0.733v0c0.06 0.283 0.017 0.563-0.129 0.841-0.153 0.279-0.341 0.519-0.566 0.721-0.232 0.204-0.432 0.323-0.6 0.359v0c-0.128 0.027-0.298-0.029-0.511-0.167v0c-0.315-0.159-0.64-0.249-0.975-0.27-0.342-0.019-0.672 0.004-0.989 0.071v0c-0.472 0.099-0.838 0.251-1.098 0.454-0.267 0.204-0.377 0.417-0.33 0.64v0c0.043 0.202 0.202 0.341 0.479 0.416 0.27 0.077 0.592 0.104 0.968 0.081 0.369-0.021 0.723-0.043 1.063-0.065v0c0.944-0.065 1.714-0.002 2.311 0.189 0.605 0.196 0.988 0.679 1.15 1.447v0c0.126 0.6 0.084 1.232-0.128 1.897-0.22 0.659-0.607 1.244-1.162 1.755-0.561 0.513-1.283 0.862-2.166 1.048z" fill="#096a2e" data-fill-palette-color="primary"></path><path d="M189.88 271.343v0c-0.924 0.341-1.699 0.281-2.324-0.179-0.621-0.469-1.109-1.185-1.464-2.148v0c-0.129-0.349-0.239-0.698-0.33-1.045-0.083-0.344-0.162-0.689-0.239-1.036v0c-0.079-0.353-0.154-0.696-0.225-1.029-0.072-0.333-0.144-0.648-0.216-0.945v0c-0.283 0.207-0.583 0.369-0.901 0.486v0c-0.336 0.124-0.554 0.05-0.654-0.221v0c-0.107-0.291-0.108-0.691-0.002-1.2 0.106-0.509 0.275-1.038 0.506-1.586 0.238-0.55 0.498-1.039 0.781-1.466 0.279-0.419 0.554-0.678 0.826-0.778v0c0.336-0.124 0.61 0.102 0.822 0.677v0c0.055 0.149 0.099 0.309 0.133 0.48 0.038 0.162 0.072 0.333 0.101 0.513v0c0.263-0.163 0.535-0.322 0.816-0.477 0.274-0.153 0.55-0.28 0.828-0.382v0c0.343-0.126 0.629-0.166 0.859-0.119 0.239 0.051 0.423 0.252 0.552 0.6v0c0.134 0.362 0.18 0.756 0.139 1.183-0.041 0.426-0.168 0.679-0.382 0.758v0c-0.045 0.017-0.122 0.038-0.23 0.062-0.117 0.021-0.255 0.046-0.413 0.076v0c-0.211 0.026-0.476 0.073-0.796 0.139-0.321 0.067-0.691 0.178-1.112 0.333v0c0.068 0.504 0.151 1.017 0.248 1.539 0.097 0.522 0.218 0.981 0.364 1.374v0c0.322 0.873 0.761 1.386 1.318 1.541 0.55 0.157 1.242 0.082 2.075-0.225v0c0.259-0.095 0.455-0.12 0.59-0.074 0.134 0.046 0.241 0.176 0.319 0.388v0c0.184 0.498 0.084 1.015-0.297 1.553-0.391 0.533-0.955 0.936-1.692 1.208z" fill="#096a2e" data-fill-palette-color="primary"></path><path d="M199.234 267.378v0c-1.006 0.467-1.939 0.569-2.797 0.306-0.861-0.269-1.538-0.935-2.031-1.998v0c-0.232-0.5-0.388-1.016-0.468-1.549-0.077-0.526-0.092-1.051-0.046-1.573v0c-0.168 0.26-0.308 0.416-0.42 0.468v0c-0.181 0.084-0.35 0.041-0.505-0.13-0.161-0.168-0.286-0.346-0.373-0.534v0c-0.156-0.338-0.208-0.637-0.154-0.897 0.045-0.264 0.11-0.476 0.195-0.637v0c0.185-0.405 0.533-0.915 1.044-1.532 0.509-0.623 1.222-1.148 2.141-1.573v0c1.256-0.582 2.395-0.681 3.416-0.297 1.018 0.378 1.819 1.196 2.402 2.452v0c0.452 0.975 0.66 1.957 0.625 2.946-0.045 0.985-0.318 1.879-0.819 2.68-0.511 0.799-1.247 1.421-2.21 1.868zM198.875 264.833v0c0.731-0.339 1.243-0.857 1.534-1.554 0.289-0.688 0.256-1.414-0.097-2.176v0c-0.365-0.788-0.879-1.233-1.542-1.336-0.666-0.094-1.337 0.016-2.012 0.329v0c-0.306 0.142-0.568 0.298-0.786 0.467-0.224 0.172-0.425 0.353-0.603 0.542v0c-0.07 0.389-0.101 0.806-0.093 1.25 0.012 0.435 0.119 0.871 0.322 1.309v0c0.339 0.731 0.813 1.18 1.422 1.346 0.611 0.172 1.23 0.113 1.855-0.177z" fill="#096a2e" data-fill-palette-color="primary"></path><path d="M217.985 256.78v0c-0.92 0.62-1.824 0.868-2.713 0.745-0.893-0.129-1.667-0.679-2.322-1.651v0c-0.308-0.457-0.544-0.942-0.707-1.456-0.159-0.507-0.257-1.023-0.294-1.546v0c-0.125 0.283-0.238 0.46-0.342 0.529v0c-0.166 0.112-0.339 0.095-0.519-0.049-0.186-0.14-0.337-0.296-0.452-0.467v0c-0.208-0.309-0.306-0.596-0.294-0.862 0.002-0.268 0.033-0.487 0.091-0.66v0c0.118-0.429 0.381-0.988 0.788-1.678 0.403-0.696 1.025-1.327 1.865-1.892v0c1.148-0.774 2.257-1.052 3.327-0.834 1.065 0.212 1.985 0.893 2.759 2.041v0c0.601 0.891 0.962 1.828 1.084 2.809 0.112 0.98-0.016 1.905-0.384 2.777-0.378 0.869-1.007 1.601-1.887 2.194zM217.227 254.324v0c0.668-0.451 1.092-1.043 1.27-1.778 0.176-0.725 0.029-1.436-0.441-2.133v0c-0.485-0.72-1.063-1.078-1.734-1.075-0.673 0.013-1.317 0.227-1.934 0.644v0c-0.28 0.189-0.514 0.384-0.703 0.585-0.194 0.205-0.364 0.416-0.51 0.631v0c-0.008 0.396 0.028 0.812 0.107 1.249 0.081 0.428 0.256 0.841 0.525 1.241v0c0.451 0.668 0.989 1.036 1.617 1.104 0.631 0.073 1.232-0.083 1.803-0.468z" fill="#096a2e" data-fill-palette-color="primary"></path><path d="M227.689 249.536v0c-0.618 0.517-1.245 0.74-1.879 0.669-0.639-0.077-1.243-0.456-1.814-1.138v0c-0.402-0.481-0.749-1.03-1.041-1.648v0c-0.109-0.259-0.233-0.51-0.373-0.753-0.14-0.242-0.296-0.467-0.469-0.672v0c-0.455-0.544-0.918-0.759-1.388-0.645v0c-0.464 0.1-0.78 0.05-0.947-0.151v0c-0.164-0.196-0.242-0.462-0.237-0.798-0.004-0.338 0.065-0.674 0.207-1.009 0.138-0.34 0.328-0.611 0.572-0.815v0c0.708-0.592 1.542-0.315 2.501 0.832v0c0.309 0.37 0.568 0.738 0.774 1.104 0.207 0.366 0.391 0.72 0.551 1.061v0c0.12 0.241 0.246 0.472 0.379 0.695 0.136 0.227 0.266 0.415 0.39 0.563v0c0.513 0.613 1.073 0.666 1.681 0.157v0c0.566-0.473 0.845-1.218 0.837-2.237-0.017-1.019-0.317-2.205-0.9-3.558v0l-0.314-0.343c-0.539-0.591-0.822-1.149-0.849-1.675-0.032-0.521 0.188-0.979 0.658-1.372v0c0.407-0.34 0.719-0.381 0.935-0.122v0c0.075 0.09 0.152 0.214 0.231 0.373 0.083 0.164 0.173 0.363 0.27 0.596v0c0.253 0.561 0.552 1.133 0.896 1.716 0.344 0.583 0.697 1.092 1.06 1.525v0c0.402 0.481 0.81 0.818 1.223 1.012 0.409 0.188 0.863 0.167 1.363-0.062v0c0.124-0.077 0.243-0.118 0.356-0.122 0.117 0.001 0.247 0.086 0.388 0.254v0c0.252 0.301 0.371 0.696 0.356 1.184-0.01 0.493-0.25 0.936-0.72 1.33v0c-0.899 0.751-1.88 0.49-2.945-0.784v0c-0.186-0.222-0.446-0.57-0.78-1.045v0l-0.053 0.017c0.894 2.648 0.587 4.601-0.919 5.861z" fill="#096a2e" data-fill-palette-color="primary"></path><path d="M237.198 241.044v0c-0.18 0.181-0.357 0.296-0.532 0.345-0.17 0.044-0.312-0.023-0.425-0.203v0c-0.368-0.617-0.765-1.22-1.19-1.807-0.421-0.593-0.867-1.122-1.336-1.589v0c-0.602-0.597-1.08-1-1.437-1.207-0.352-0.203-0.644-0.295-0.878-0.275-0.234 0.02-0.47 0.092-0.708 0.215v0c-0.117 0.049-0.234 0.074-0.351 0.074-0.117 0.01-0.227-0.036-0.329-0.137v0c-0.161-0.16-0.279-0.398-0.354-0.715-0.069-0.321-0.061-0.667 0.026-1.038 0.086-0.371 0.275-0.703 0.566-0.996v0c0.388-0.391 0.792-0.529 1.211-0.414 0.424 0.11 0.854 0.382 1.29 0.814v0c-0.256-0.662-0.368-1.277-0.336-1.848 0.032-0.57 0.274-1.083 0.725-1.537v0c0.306-0.308 0.629-0.497 0.97-0.566 0.341-0.07 0.668 0.051 0.98 0.361v0c0.308 0.306 0.5 0.69 0.575 1.153 0.065 0.463-0.004 0.797-0.209 1.002v0c-0.034 0.034-0.08 0.071-0.138 0.11-0.053 0.034-0.122 0.044-0.205 0.03v0c-0.331-0.028-0.604 0.066-0.817 0.281v0c-0.33 0.333-0.401 0.839-0.213 1.52 0.188 0.681 0.651 1.413 1.389 2.195v0c0.298 0.277 0.596 0.558 0.895 0.844 0.308 0.286 0.53 0.497 0.667 0.633v0c0.425 0.422 0.659 0.887 0.7 1.394 0.041 0.507-0.138 0.96-0.536 1.361z" fill="#096a2e" data-fill-palette-color="primary"></path><path d="M250.045 226.4v0c-0.574 0.775-1.276 1.22-2.107 1.334-0.836 0.11-1.705-0.17-2.607-0.838v0c-0.648-0.48-1.201-1.082-1.659-1.807-0.454-0.73-0.762-1.524-0.924-2.382-0.158-0.863-0.147-1.746 0.034-2.65 0.19-0.905 0.597-1.778 1.22-2.62v0c0.574-0.775 1.197-1.338 1.869-1.69 0.672-0.351 1.235-0.359 1.689-0.022v0c0.116 0.086 0.26 0.21 0.432 0.371 0.168 0.167 0.295 0.313 0.383 0.438v0c0.071 0.113 0.124 0.238 0.159 0.375 0.03 0.133 0.002 0.258-0.085 0.375v0c-0.037 0.05-0.128 0.132-0.273 0.248v0c0.234 0.251 0.471 0.486 0.711 0.706 0.238 0.211 0.488 0.413 0.748 0.606v0c0.493 0.365 0.984 0.617 1.472 0.756 0.493 0.133 0.947 0.011 1.364-0.366v0c0.114-0.096 0.222-0.161 0.326-0.197 0.099-0.03 0.234 0.019 0.406 0.147v0c0.144 0.107 0.299 0.273 0.466 0.499 0.168 0.236 0.264 0.517 0.288 0.844 0.025 0.336-0.099 0.69-0.374 1.061v0c-0.377 0.509-0.852 0.762-1.424 0.758-0.566 0.001-1.193-0.253-1.879-0.761v0c0.378 0.82 0.568 1.647 0.569 2.479 0.001 0.832-0.267 1.611-0.804 2.336zM248.488 224.283v0c0.385-0.52 0.563-1.096 0.533-1.727-0.03-0.631-0.209-1.24-0.538-1.826v0c-0.203-0.374-0.462-0.737-0.776-1.089-0.308-0.348-0.637-0.669-0.985-0.962v0c-0.265 0.138-0.535 0.328-0.809 0.572-0.276 0.233-0.528 0.505-0.758 0.815v0c-0.586 0.792-0.836 1.615-0.748 2.468 0.088 0.854 0.481 1.539 1.178 2.056v0c0.52 0.385 1.043 0.554 1.568 0.505 0.525-0.049 0.97-0.319 1.335-0.812z" fill="#096a2e" data-fill-palette-color="primary"></path><path d="M257.122 216.141v0c-0.132 0.218-0.278 0.371-0.437 0.461-0.155 0.083-0.309 0.05-0.46-0.098v0c-0.502-0.514-1.029-1.007-1.581-1.479-0.548-0.478-1.105-0.888-1.671-1.232v0c-0.725-0.44-1.284-0.719-1.679-0.838-0.389-0.115-0.695-0.136-0.918-0.061-0.223 0.074-0.435 0.199-0.638 0.374v0c-0.102 0.075-0.21 0.127-0.324 0.155-0.111 0.037-0.229 0.018-0.352-0.057v0c-0.194-0.118-0.365-0.322-0.511-0.612-0.143-0.296-0.215-0.634-0.218-1.015-0.003-0.381 0.103-0.747 0.317-1.101v0c0.286-0.471 0.646-0.7 1.081-0.686 0.438 0.008 0.92 0.171 1.444 0.489v0c-0.404-0.583-0.656-1.156-0.759-1.717-0.102-0.562 0.013-1.117 0.345-1.665v0c0.225-0.371 0.495-0.63 0.811-0.777 0.315-0.147 0.661-0.107 1.038 0.122v0c0.371 0.225 0.647 0.554 0.828 0.986 0.172 0.435 0.182 0.775 0.032 1.023v0c-0.025 0.041-0.061 0.088-0.109 0.139-0.044 0.046-0.108 0.072-0.192 0.077v0c-0.329 0.05-0.572 0.205-0.729 0.465v0c-0.243 0.401-0.194 0.91 0.149 1.528 0.342 0.619 0.963 1.221 1.864 1.809v0c0.355 0.199 0.711 0.403 1.068 0.611 0.366 0.206 0.632 0.359 0.797 0.46v0c0.512 0.311 0.848 0.708 1.006 1.19 0.158 0.483 0.091 0.966-0.202 1.449z" fill="#096a2e" data-fill-palette-color="primary"></path><path d="M262.138 207.177v0c-0.243 0.525-0.527 0.679-0.851 0.461v0c-0.556-0.455-1.135-0.886-1.736-1.293-0.598-0.413-1.197-0.759-1.798-1.037v0c-0.769-0.356-1.358-0.568-1.767-0.636-0.4-0.071-0.705-0.06-0.915 0.033-0.213 0.099-0.412 0.25-0.596 0.452v0c-0.09 0.08-0.191 0.143-0.304 0.19-0.106 0.049-0.225 0.044-0.357-0.017v0c-0.206-0.095-0.397-0.282-0.572-0.561-0.175-0.278-0.284-0.609-0.326-0.993-0.042-0.384 0.023-0.764 0.197-1.139v0c0.231-0.5 0.563-0.765 0.993-0.793 0.434-0.035 0.929 0.077 1.485 0.334v0c0.363 0.168 0.755 0.395 1.177 0.681 0.415 0.283 0.787 0.546 1.115 0.789v0l0.05-0.033c-0.665-0.596-1.248-1.215-1.749-1.857-0.497-0.648-0.838-1.314-1.022-1.999-0.181-0.676-0.122-1.336 0.176-1.98v0c0.304-0.657 0.766-1.073 1.386-1.249 0.618-0.17 1.358-0.055 2.221 0.344v0l0.488 0.226c-0.697-0.839-1.206-1.701-1.526-2.585-0.32-0.884-0.28-1.758 0.119-2.621v0c0.324-0.7 0.812-1.139 1.463-1.315 0.651-0.177 1.327-0.103 2.028 0.22v0c0.275 0.127 0.528 0.278 0.758 0.454 0.227 0.181 0.45 0.364 0.669 0.548v0c0.202 0.17 0.416 0.34 0.639 0.512 0.224 0.172 0.461 0.316 0.712 0.432v0c0.875 0.405 1.617 0.296 2.223-0.326v0c0.09-0.08 0.175-0.139 0.254-0.179 0.076-0.033 0.18-0.019 0.311 0.041v0c0.131 0.061 0.303 0.19 0.516 0.387 0.213 0.197 0.368 0.459 0.467 0.786 0.103 0.336 0.053 0.723-0.15 1.16v0c-0.263 0.569-0.672 0.911-1.226 1.027-0.561 0.113-1.163 0.02-1.807-0.278v0c-0.319-0.148-0.64-0.33-0.965-0.549-0.321-0.225-0.624-0.456-0.909-0.694v0c-0.253-0.208-0.499-0.398-0.738-0.569-0.239-0.172-0.456-0.302-0.65-0.392v0c-0.35-0.162-0.646-0.196-0.887-0.103-0.234 0.097-0.415 0.282-0.542 0.558v0c-0.217 0.469-0.268 0.958-0.155 1.466 0.123 0.505 0.353 1.01 0.689 1.514 0.339 0.498 0.739 0.98 1.2 1.443v0c0.137 0.048 0.312 0.114 0.523 0.197 0.215 0.092 0.405 0.176 0.568 0.251v0c0.275 0.127 0.557 0.281 0.846 0.46 0.295 0.182 0.52 0.37 0.673 0.562v0c0.226 0.249 0.375 0.527 0.446 0.833 0.071 0.306 0.018 0.65-0.158 1.031v0c-0.075 0.163-0.18 0.3-0.316 0.412-0.132 0.121-0.273 0.147-0.423 0.078v0c-0.056-0.026-0.296-0.19-0.718-0.492-0.416-0.299-0.941-0.648-1.576-1.048-0.629-0.397-1.265-0.745-1.909-1.043v0c-0.7-0.324-1.218-0.476-1.553-0.457-0.342 0.017-0.581 0.172-0.717 0.466v0c-0.168 0.363-0.175 0.781-0.022 1.254 0.159 0.476 0.417 0.96 0.775 1.451 0.357 0.492 0.752 0.959 1.184 1.403 0.436 0.437 0.851 0.819 1.246 1.146v0l0.244 0.112c0.544 0.252 0.922 0.609 1.133 1.071 0.211 0.462 0.2 0.947-0.034 1.453z" fill="#096a2e" data-fill-palette-color="primary"></path><path d="M270.887 186.706v0c-0.185 0.563-0.44 1.063-0.765 1.5-0.331 0.435-0.701 0.756-1.11 0.963-0.4 0.202-0.816 0.233-1.248 0.09v0c-0.229-0.075-0.427-0.202-0.593-0.379-0.171-0.187-0.213-0.411-0.127-0.673v0c0.045-0.137 0.132-0.269 0.259-0.393v0c0.241-0.226 0.496-0.53 0.767-0.912 0.273-0.389 0.486-0.819 0.641-1.291v0c0.176-0.537 0.253-1.037 0.232-1.501-0.015-0.462-0.16-0.738-0.435-0.828v0c-0.216-0.071-0.421 0.036-0.617 0.32-0.195 0.284-0.465 0.776-0.81 1.474v0c-0.257 0.474-0.525 0.926-0.804 1.357-0.281 0.437-0.619 0.758-1.012 0.962-0.402 0.209-0.891 0.219-1.467 0.03v0c-0.57-0.187-1.068-0.524-1.495-1.013-0.421-0.486-0.706-1.098-0.855-1.836-0.147-0.744-0.073-1.568 0.224-2.472v0c0.155-0.471 0.361-0.911 0.618-1.32 0.251-0.411 0.532-0.725 0.842-0.942 0.313-0.224 0.629-0.283 0.95-0.177v0c0.275 0.09 0.496 0.268 0.663 0.533 0.165 0.272 0.278 0.555 0.34 0.851 0.06 0.303 0.064 0.536 0.01 0.699v0c-0.041 0.124-0.174 0.244-0.4 0.359v0c-0.295 0.193-0.536 0.43-0.722 0.709-0.188 0.286-0.333 0.583-0.434 0.891v0c-0.15 0.458-0.203 0.851-0.158 1.177 0.043 0.333 0.172 0.535 0.388 0.606v0c0.196 0.064 0.397-0.004 0.601-0.205 0.202-0.195 0.387-0.46 0.555-0.797 0.166-0.33 0.325-0.648 0.476-0.953v0c0.417-0.85 0.857-1.484 1.321-1.905 0.473-0.425 1.083-0.515 1.829-0.27v0c0.583 0.191 1.108 0.545 1.577 1.061 0.46 0.521 0.772 1.149 0.937 1.885 0.163 0.742 0.103 1.542-0.178 2.4z" fill="#096a2e" data-fill-palette-color="primary"></path></g></svg></g></svg></g></svg></g></svg></g><defs></defs></svg><rect width="279.72" height="279.72" fill="none" stroke="none" visibility="hidden"></rect></g></svg></g></svg>